# xmcd CD database file
#
# Track frame offsets:
#	150
#	26775
#	59625
#	88125
#	118500
#	146625
#
# Disc length: 2207 seconds
#
# Revision: 0
# Processed by: cddbd v1.5.2PL0 Copyright (c) Steve Scherf et al.
# Submitted via: CDex 1.70beta2
#
DISCID=56089d06
DTITLE=Paul Chambers - Bass On Top
DYEAR=1957
DGENRE=Jazz
TTITLE0=Yesterdays
TTITLE1=You'd Be So Nice To Come Home To
TTITLE2=Chasin' the Bird
TTITLE3=Dear Old Stockholm
TTITLE4=The Theme
TTITLE5=Confessin'
EXTD=YEAR: 1957
EXTT0=
EXTT1=
EXTT2=
EXTT3=
EXTT4=
EXTT5=
PLAYORDER=
